HIERARCHY
ROOT Hips
{
 OFFSET 0.000000 0.000000 0.000000
 CHANNELS 6 Xposition Yposition Zposition Yrotation Xrotation Zrotation
 JOINT Chest
 {
  OFFSET 0.000000 9.585900 0.002600
  CHANNELS 3 Yrotation Xrotation Zrotation
  JOINT Chest2
  {
   OFFSET 0.000000 9.601200 -0.005300
   CHANNELS 3 Yrotation Xrotation Zrotation
   JOINT Chest3
   {
    OFFSET 0.000000 9.561800 0.000000
    CHANNELS 3 Yrotation Xrotation Zrotation
    JOINT Chest4
    {
     OFFSET 0.000000 9.552100 0.000000
     CHANNELS 3 Yrotation Xrotation Zrotation
     JOINT Neck
     {
      OFFSET 0.000000 14.453000 0.000000
      CHANNELS 3 Yrotation Xrotation Zrotation
      JOINT Head
      {
       OFFSET 0.000000 8.936500 -0.011300
       CHANNELS 3 Yrotation Xrotation Zrotation
       End Site
       {
        OFFSET 0.000000 17.073600 -0.006000
       }
      }
     }
     JOINT RightCollar
     {
      OFFSET -2.921100 9.558500 0.000000
      CHANNELS 3 Yrotation Xrotation Zrotation
      JOINT RightShoulder
      {
       OFFSET -13.519700 0.000000 0.000000
       CHANNELS 3 Yrotation Xrotation Zrotation
       JOINT RightElbow
       {
        OFFSET 0.000000 -29.696600 0.000000
        CHANNELS 3 Yrotation Xrotation Zrotation
        JOINT RightWrist
        {
         OFFSET 0.000000 -24.004700 0.000000
         CHANNELS 3 Yrotation Xrotation Zrotation
         End Site
         {
          OFFSET 0.000000 -17.728500 0.000000
         }
        }
       }
      }
     }
     JOINT LeftCollar
     {
      OFFSET 2.921100 9.558500 0.000000
      CHANNELS 3 Yrotation Xrotation Zrotation
      JOINT LeftShoulder
      {
       OFFSET 13.519700 0.000000 0.000000
       CHANNELS 3 Yrotation Xrotation Zrotation
       JOINT LeftElbow
       {
        OFFSET 0.000000 -29.696600 0.000000
        CHANNELS 3 Yrotation Xrotation Zrotation
        JOINT LeftWrist
        {
         OFFSET 0.000000 -24.004700 0.000000
         CHANNELS 3 Yrotation Xrotation Zrotation
         End Site
         {
          OFFSET 0.000000 -17.728500 0.000000
         }
        }
       }
      }
     }
    }
   }
  }
 }
 JOINT RightHip
 {
  OFFSET -7.771700 -0.012900 -0.001300
  CHANNELS 3 Yrotation Xrotation Zrotation
  JOINT RightKnee
  {
   OFFSET 0.000000 -40.869800 0.001200
   CHANNELS 3 Yrotation Xrotation Zrotation
   JOINT RightAnkle
   {
    OFFSET 0.000000 -39.717900 0.002100
    CHANNELS 3 Yrotation Xrotation Zrotation
    JOINT RightToe
    {
     OFFSET 0.000000 -4.965400 11.033500
     CHANNELS 3 Yrotation Xrotation Zrotation
     End Site
     {
      OFFSET 0.000000 -1.423100 5.872300
     }
    }
   }
  }
 }
 JOINT LeftHip
 {
  OFFSET 7.771700 -0.012900 -0.001300
  CHANNELS 3 Yrotation Xrotation Zrotation
  JOINT LeftKnee
  {
   OFFSET 0.000000 -40.869800 0.001200
   CHANNELS 3 Yrotation Xrotation Zrotation
   JOINT LeftAnkle
   {
    OFFSET 0.000000 -39.717900 0.002100
    CHANNELS 3 Yrotation Xrotation Zrotation
    JOINT LeftToe
    {
     OFFSET 0.000000 -4.965400 11.033500
     CHANNELS 3 Yrotation Xrotation Zrotation
     End Site
     {
      OFFSET 0.000000 -1.423100 5.872300
     }
    }
   }
  }
 }
}
MOTION
Frames: 12
Frame Time: 0.008333
-69.253461 63.169989 12.710481 165.466239 -50.769634 -3.238470 7.878238 25.669086 4.847530 1.202685 4.410928 0.358344 1.933483 7.008512 0.615498 6.283903 21.084063 2.674409 0.969114 15.047291 0.436501 1.652209 -7.837148 0.451493 5.352247 6.386212 6.648990 -3.268221 -14.998267 -13.747972 -80.777005 -60.786855 122.484132 8.473227 6.477388 5.599933 -10.404241 2.998765 -0.875418 -3.302451 -10.335250 17.175698 78.438745 -67.236645 -111.072842 16.396521 -0.281903 -3.455240 -5.072633 -9.485337 10.461190 -27.581264 74.044835 -26.506746 0.293492 -13.402161 -1.759355 -0.381732 0.807215 -0.160291 -2.347287 -16.291376 0.732418 15.731249 61.909781 8.941550 -1.280756 -5.154551 1.480483 -0.486656 -0.642358 -0.195656
-69.261367 63.171083 12.707628 165.474914 -50.766214 -3.232357 7.868766 25.671460 4.834536 1.209182 4.426582 0.358256 1.934394 7.014787 0.612912 6.284085 21.087691 2.666794 0.967835 15.028058 0.446841 1.676180 -7.768896 0.465578 5.350845 6.363928 6.654096 -3.256415 -14.990873 -13.761495 -80.711073 -60.769286 122.429668 8.459164 6.462775 5.599977 -10.405363 2.987461 -0.859702 -3.277440 -10.322483 17.165182 78.523341 -67.258047 -111.148566 16.379086 -0.286634 -3.454567 -5.071783 -9.491738 10.448267 -27.580038 74.050762 -26.507828 0.279456 -13.404400 -1.754766 -0.372625 0.804871 -0.159609 -2.321364 -16.289663 0.718509 15.734958 61.911299 8.943834 -1.301865 -5.218962 1.493080 -0.492939 -0.622273 -0.193963
-69.270245 63.172102 12.704903 165.477677 -50.763033 -3.216481 7.864443 25.680585 4.818198 1.210434 4.430747 0.356934 1.945272 7.039671 0.610565 6.276434 21.074567 2.660181 0.974241 15.042003 0.455093 1.683959 -7.741108 0.479776 5.361216 6.367514 6.644575 -3.265775 -15.014147 -13.749885 -80.617486 -60.752740 122.356651 8.444241 6.442614 5.593893 -10.407540 2.977823 -0.844879 -3.262565 -10.314920 17.155752 78.587016 -67.283204 -111.200002 16.357473 -0.288539 -3.452015 -5.066370 -9.498638 10.430104 -27.575485 74.054278 -26.507654 0.266978 -13.406596 -1.747642 -0.365763 0.805980 -0.157647 -2.308695 -16.290010 0.706122 15.756801 61.914895 8.934620 -1.306455 -5.272761 1.528300 -0.516333 -0.588874 -0.201315
-69.278770 63.173185 12.702606 165.485924 -50.759526 -3.206908 7.860790 25.688664 4.807682 1.211268 4.434482 0.355560 1.942341 7.044991 0.609167 6.274863 21.081289 2.653575 0.983801 15.058273 0.459232 1.690655 -7.709902 0.493131 5.385220 6.405711 6.624866 -3.284540 -15.070347 -13.728161 -80.550925 -60.738487 122.305274 8.423108 6.428588 5.585298 -10.397462 3.012713 -0.835005 -3.271589 -10.365543 17.157280 78.601545 -67.320486 -111.172100 16.362883 -0.296533 -3.481163 -5.060495 -9.504506 10.415073 -27.589283 74.053176 -26.523635 0.262370 -13.409553 -1.739003 -0.362844 0.809389 -0.156190 -2.240631 -16.286873 0.676129 15.689536 61.911806 8.913903 -1.326816 -5.333008 1.536131 -0.506651 -0.580457 -0.199652
-69.286005 63.174400 12.700807 165.486764 -50.756699 -3.198240 7.861605 25.697427 4.801929 1.211666 4.437558 0.354447 1.939571 7.045589 0.609262 6.272445 21.079825 2.648929 0.998553 15.131696 0.463274 1.694480 -7.719650 0.499330 5.408796 6.420342 6.614135 -3.287102 -15.078294 -13.729182 -80.576328 -60.727328 122.317574 8.394499 6.434659 5.584749 -10.389536 3.028050 -0.833079 -3.269511 -10.362549 17.148088 78.670107 -67.347229 -111.238179 16.340473 -0.295866 -3.448379 -5.052147 -9.511414 10.409845 -27.608124 74.052335 -26.544713 0.250999 -13.405814 -1.733909 -0.353899 0.807553 -0.153340 -2.188602 -16.283675 0.664081 15.641336 61.913879 8.882990 -1.337822 -5.395554 1.556298 -0.519345 -0.612672 -0.208453
-69.295210 63.175859 12.698190 165.497383 -50.755470 -3.181971 7.857281 25.725076 4.790432 1.202480 4.426968 0.349280 1.937340 7.035190 0.604857 6.271228 21.087816 2.646609 1.002863 15.141332 0.464191 1.708304 -7.663649 0.504598 5.436977 6.429734 6.602343 -3.267719 -15.051449 -13.734865 -80.604060 -60.714251 122.322113 8.412538 6.409094 5.571341 -10.383403 3.041399 -0.834480 -3.262573 -10.361796 17.142930 78.731516 -67.368836 -111.300376 16.343538 -0.288310 -3.437313 -5.043719 -9.517256 10.390509 -27.627083 74.056368 -26.569972 0.239236 -13.412016 -1.719022 -0.352319 0.810511 -0.152749 -2.168106 -16.280635 0.641026 15.622192 61.915835 8.852063 -1.335405 -5.447571 1.578813 -0.527109 -0.630013 -0.213620
-69.303406 63.177250 12.695955 165.515826 -50.752152 -3.174916 7.841215 25.731177 4.771216 1.204989 4.438123 0.349468 1.937243 7.039669 0.602979 6.268444 21.094227 2.640177 1.004869 15.135899 0.469680 1.721440 -7.607016 0.510256 5.447895 6.410749 6.600315 -3.270103 -15.049416 -13.731501 -80.500839 -60.733820 122.239873 8.421057 6.354541 5.551024 -10.383824 3.041226 -0.829268 -3.260533 -10.358160 17.136094 78.782662 -67.391473 -111.350656 16.356345 -0.278797 -3.409988 -5.037891 -9.525071 10.371369 -27.634002 74.062967 -26.570959 0.213511 -13.414721 -1.716240 -0.337604 0.808840 -0.145401 -2.153336 -16.280330 0.619443 15.613367 61.917827 8.834383 -1.332497 -5.498380 1.596185 -0.531682 -0.635262 -0.214911
-69.308042 63.180508 12.693185 165.525215 -50.761909 -3.177055 7.841477 25.746543 4.772725 1.211303 4.446205 0.350478 1.936975 7.043967 0.600656 6.264639 21.100601 2.632174 1.009851 15.154944 0.475769 1.728458 -7.568910 0.520846 5.457755 6.394868 6.602834 -3.274632 -15.047708 -13.728366 -80.487797 -60.753113 122.225654 8.427315 6.387368 5.554919 -10.388653 3.045666 -0.821934 -3.266790 -10.354821 17.135213 78.799203 -67.397221 -111.359508 16.362058 -0.269812 -3.372455 -5.030835 -9.515841 10.373904 -27.655859 74.061780 -26.589963 0.190063 -13.412008 -1.723047 -0.317065 0.805599 -0.130472 -2.070952 -16.261308 0.613252 15.523410 61.919839 8.785941 -1.354311 -5.555071 1.612626 -0.520926 -0.634321 -0.208021
-69.314117 63.182691 12.690714 165.527496 -50.762982 -3.162099 7.840252 25.758244 4.760826 1.211436 4.448357 0.349234 1.946844 7.061215 0.599967 6.252070 21.091391 2.623473 1.022341 15.197813 0.480830 1.731125 -7.546841 0.531087 5.481046 6.392203 6.597228 -3.277668 -15.043209 -13.718291 -80.517824 -60.772659 122.236893 8.436723 6.402544 5.549998 -10.392177 3.051396 -0.817750 -3.280067 -10.313626 17.136543 78.885110 -67.410017 -111.425402 16.363032 -0.269711 -3.341068 -5.027150 -9.516829 10.362191 -27.672050 74.061799 -26.608529 0.170056 -13.411427 -1.726144 -0.291857 0.807369 -0.123197 -2.033602 -16.255315 0.607365 15.582471 61.919523 8.809093 -1.373453 -5.597174 1.661847 -0.560927 -0.647582 -0.222103
-69.319475 63.184296 12.688842 165.535355 -50.758112 -3.152988 7.844347 25.770938 4.759587 1.211492 4.454119 0.347779 1.935902 7.050917 0.594584 6.259222 21.098499 2.617906 1.023705 15.234169 0.488968 1.737802 -7.516806 0.533340 5.498250 6.384889 6.591522 -3.282099 -15.033675 -13.710033 -80.569157 -60.780483 122.264666 8.443261 6.414775 5.548712 -10.404706 3.053226 -0.814348 -3.286668 -10.295643 17.142041 78.907391 -67.403213 -111.431199 16.354954 -0.264751 -3.308962 -5.029325 -9.523022 10.350198 -27.681807 74.062311 -26.621372 0.159884 -13.410807 -1.725604 -0.281839 0.807339 -0.121311 -2.023091 -16.257612 0.596842 15.637576 61.918001 8.840584 -1.395360 -5.629200 1.676673 -0.580530 -0.663433 -0.225731
-69.324788 63.187195 12.685761 165.536356 -50.762388 -3.133772 7.838834 25.785680 4.746108 1.211480 4.460200 0.348377 1.932265 7.041230 0.588447 6.258320 21.117696 2.616996 1.031246 15.268416 0.491255 1.748730 -7.488992 0.529475 5.520442 6.383017 6.577192 -3.283173 -15.032364 -13.697585 -80.584158 -60.811825 122.259023 8.443258 6.402873 5.548312 -10.404866 3.039263 -0.813784 -3.289684 -10.284853 17.144408 78.877870 -67.400474 -111.396166 16.352613 -0.268377 -3.272420 -5.026087 -9.521107 10.335698 -27.716893 74.063011 -26.669897 0.171904 -13.410796 -1.715631 -0.293277 0.805530 -0.124601 -1.972132 -16.244660 0.580367 15.624910 61.912844 8.838595 -1.442448 -5.664154 1.678900 -0.571351 -0.652301 -0.211863
-69.329339 63.189273 12.683550 165.533382 -50.759016 -3.114268 7.833656 25.787396 4.729688 1.214270 4.471453 0.352853 1.931452 7.047085 0.588474 6.250926 21.125693 2.610512 1.037209 15.285806 0.490092 1.762367 -7.450172 0.524584 5.536725 6.376864 6.551846 -3.281430 -15.031725 -13.681117 -80.593872 -60.836788 122.246215 8.447658 6.406323 5.551990 -10.404965 3.020269 -0.814335 -3.291726 -10.271633 17.145212 78.849822 -67.396744 -111.358757 16.348228 -0.273547 -3.240208 -5.015993 -9.530221 10.326642 -27.756968 74.063560 -26.717444 0.173351 -13.404017 -1.708510 -0.297306 0.797883 -0.122947 -1.919547 -16.241058 0.564291 15.573453 61.908801 8.812133 -1.480711 -5.689337 1.675535 -0.553630 -0.647216 -0.199834
